<svg width="1440" height="900" viewBox="0 0 1440 900" fill="none" xmlns="http://www.w3.org/2000/svg" preserveAspectRatio="none">
<g clip-path="url(#clip0_927_53506)">
<path fill-rule="evenodd" clip-rule="evenodd" d="M314.865 248.607C326.115 256.803 337.365 265 359.865 265H359.992V204.786C337.492 204.786 326.242 196.59 314.992 188.393C303.742 180.197 292.492 172 269.992 172C247.492 172 236.242 180.197 224.992 188.393C213.742 196.59 202.492 204.786 179.992 204.786C157.492 204.786 146.242 196.59 134.992 188.393C123.742 180.197 112.492 172 89.9922 172C67.4922 172 56.2422 180.197 44.9922 188.393C33.7422 196.59 22.4922 204.786 -0.0078125 204.786V265C22.4922 265 33.7104 256.803 44.9286 248.607C56.1469 240.41 67.3651 232.214 89.8651 232.214C112.365 232.214 123.615 240.41 134.865 248.607C146.115 256.803 157.365 265 179.865 265C202.365 265 213.615 256.803 224.865 248.607C236.115 240.41 247.365 232.214 269.865 232.214C292.365 232.214 303.615 240.41 314.865 248.607ZM314.865 353.609C326.115 361.805 337.365 370.002 359.865 370.002H359.992V309.788C337.492 309.788 326.242 301.591 314.992 293.395C303.742 285.198 292.492 277.002 269.992 277.002C247.492 277.002 236.242 285.198 224.992 293.395C213.742 301.591 202.492 309.788 179.992 309.788C157.492 309.788 146.242 301.591 134.992 293.395C123.742 285.198 112.492 277.002 89.9922 277.002C67.4922 277.002 56.2422 285.198 44.9922 293.395C33.7422 301.591 22.4922 309.788 -0.0078125 309.788V370.002C22.4922 370.002 33.7104 361.805 44.9286 353.609C56.1469 345.412 67.3651 337.216 89.8651 337.216C112.365 337.216 123.615 345.412 134.865 353.609C146.115 361.805 157.365 370.002 179.865 370.002C202.365 370.002 213.615 361.805 224.865 353.609C236.115 345.412 247.365 337.216 269.865 337.216C292.365 337.216 303.615 345.412 314.865 353.609ZM359.865 474.99C337.365 474.99 326.115 466.794 314.865 458.597C303.615 450.401 292.365 442.204 269.865 442.204C247.365 442.204 236.115 450.401 224.865 458.597C213.615 466.794 202.365 474.99 179.865 474.99C157.365 474.99 146.115 466.794 134.865 458.597C123.615 450.401 112.365 442.204 89.8651 442.204C67.3651 442.204 56.1469 450.401 44.9286 458.597C33.7104 466.794 22.4922 474.99 -0.0078125 474.99V414.776C22.4922 414.776 33.7422 406.58 44.9922 398.383C56.2422 390.187 67.4922 381.99 89.9922 381.99C112.492 381.99 123.742 390.187 134.992 398.383C146.242 406.58 157.492 414.776 179.992 414.776C202.492 414.776 213.742 406.58 224.992 398.383C236.242 390.187 247.492 381.99 269.992 381.99C292.492 381.99 303.742 390.187 314.992 398.383C326.242 406.58 337.492 414.776 359.992 414.776V474.99H359.865ZM314.865 668.609C326.115 676.805 337.365 685.002 359.865 685.002H359.992V624.788C337.492 624.788 326.242 616.591 314.992 608.395C303.742 600.198 292.492 592.002 269.992 592.002C247.492 592.002 236.242 600.198 224.992 608.395C213.742 616.591 202.492 624.788 179.992 624.788C157.492 624.788 146.242 616.591 134.992 608.395C123.742 600.198 112.492 592.002 89.9922 592.002C67.4922 592.002 56.2422 600.198 44.9922 608.395C33.7422 616.591 22.4922 624.788 -0.0078125 624.788V685.002C22.4922 685.002 33.7104 676.805 44.9286 668.609C56.1469 660.412 67.3651 652.216 89.8651 652.216C112.365 652.216 123.615 660.412 134.865 668.609C146.115 676.805 157.365 685.002 179.865 685.002C202.365 685.002 213.615 676.805 224.865 668.609C236.115 660.412 247.365 652.216 269.865 652.216C292.365 652.216 303.615 660.412 314.865 668.609ZM359.865 580C337.365 580 326.115 571.803 314.865 563.607C303.615 555.41 292.365 547.214 269.865 547.214C247.365 547.214 236.115 555.41 224.865 563.607C213.615 571.803 202.365 580 179.865 580C157.365 580 146.115 571.803 134.865 563.607C123.615 555.41 112.365 547.214 89.8651 547.214C67.3651 547.214 56.1469 555.41 44.9286 563.607C33.7104 571.803 22.4922 580 -0.0078125 580V519.786C22.4922 519.786 33.7422 511.59 44.9922 503.393C56.2422 495.197 67.4922 487 89.9922 487C112.492 487 123.742 495.197 134.992 503.393C146.242 511.59 157.492 519.786 179.992 519.786C202.492 519.786 213.742 511.59 224.992 503.393C236.242 495.197 247.492 487 269.992 487C292.492 487 303.742 495.197 314.992 503.393C326.242 511.59 337.492 519.786 359.992 519.786V580H359.865ZM314.865 773.613C326.115 781.809 337.365 790.006 359.865 790.006H359.992V729.792C337.492 729.792 326.242 721.595 314.992 713.399C303.742 705.202 292.492 697.006 269.992 697.006C247.492 697.006 236.242 705.202 224.992 713.399C213.742 721.595 202.492 729.792 179.992 729.792C157.492 729.792 146.242 721.595 134.992 713.399C123.742 705.202 112.492 697.006 89.9922 697.006C67.4922 697.006 56.2422 705.202 44.9922 713.399C33.7422 721.595 22.4922 729.792 -0.0078125 729.792V790.006C22.4922 790.006 33.7104 781.809 44.9286 773.613C56.1469 765.416 67.3651 757.22 89.8651 757.22C112.365 757.22 123.615 765.416 134.865 773.613C146.115 781.809 157.365 790.006 179.865 790.006C202.365 790.006 213.615 781.809 224.865 773.613C236.115 765.416 247.365 757.22 269.865 757.22C292.365 757.22 303.615 765.416 314.865 773.613Z" fill="url(#paint0_linear_927_53506)"/>
</g>
<defs>
<linearGradient id="paint0_linear_927_53506" x1="187.992" y1="575" x2="187.993" y2="64" gradientUnits="userSpaceOnUse">
<stop stop-color="#61CFFF"/>
<stop offset="1" stop-color="#022366"/>
</linearGradient>
<clipPath id="clip0_927_53506">
<rect width="1440" height="900" fill="white"/>
</clipPath>
</defs>
</svg>
