<?xml version="1.0" encoding="UTF-8"?>
<svg id="Layer_1" data-name="Layer 1" xmlns="http://www.w3.org/2000/svg" xmlns:xlink="http://www.w3.org/1999/xlink" version="1.1" viewBox="0 0 720 720">
  <defs>
    <style>
      .cls-1 {
        clip-path: url(#clippath);
      }

      .cls-2 {
        fill: none;
      }

      .cls-2, .cls-3 {
        stroke-width: 0px;
      }

      .cls-3 {
        fill: #000;
      }
    </style>
    <clipPath id="clippath">
      <rect class="cls-2" width="720" height="720"/>
    </clipPath>
  </defs>
  <g class="cls-1">
    <path class="cls-3" d="M143.7,154.7l-77.4-77.4,11.4-11.3,100.8,100.8c-11.1-5.3-22.7-9.4-34.8-12.1ZM66.3,642l11.3,11.3,100.7-100.7c-11,5.3-22.7,9.4-34.7,12.1l-77.3,77.3ZM175.1,380.5h10v-41.8h-10v41.8ZM235.2,385.9h10v-52.5h-10v52.5ZM230.8,248.9c4.1,14,4.2,30.2,4.3,47.1h10c-.1-19.8-.2-38.6-6.4-55.1l-7.9,8ZM230.8,470.4l7.9,7.9c6.2-16.4,6.3-35.3,6.4-55h-10c0,16.8,0,33.1-4.3,47.1ZM653.7,77.3l-11.4-11.3-100.8,100.8c11-5.3,22.7-9.4,34.7-12.1l77.5-77.4ZM541.6,552.5l100.7,100.7,11.3-11.3-77.4-77.4c-11.9-2.6-23.6-6.6-34.6-12ZM720,421.6h-47.6v138h-60.7c-40.9,0-79.3-16-108.3-44.9-3.8-3.8-7.5-7.9-10.9-12.3l-132.5,132.5-132.5-132.5c-3.5,4.3-7.1,8.5-10.9,12.3-29,29-67.4,44.9-108.3,44.9h-60.7v-138H0v-124h47.6v-138h60.7c40.9,0,79.3,16,108.3,44.9,3.8,3.8,7.5,7.9,10.9,12.3l132.5-132.4,132.5,132.5c3.5-4.3,7.1-8.5,10.9-12.3,29-29,67.4-44.9,108.3-44.9h60.7v137.9h47.6v124ZM365,449.3v157.9l247.6-247.6-247.6-247.6v158c-1.7-.1-3.3-.1-5-.1s-3.3.1-5,.1V112.1l-247.6,247.5,247.6,247.7v-158c1.7.1,3.3.1,5,.1s3.3,0,5-.1ZM47.6,405.6v-92h-31.6v92h31.6ZM216.1,491l-131.3-131.4,131.4-131.4c-3.4-4.4-7.1-8.5-10.9-12.3-26-26-60.4-40.3-97-40.3h-44.7v367.9h44.7c36.6,0,71.1-14.3,97-40.3,3.8-3.7,7.4-7.8,10.8-12.2ZM656.4,175.7h-44.7c-36.6,0-71.1,14.3-97,40.3-3.8,3.8-7.4,7.9-10.9,12.3l131.4,131.4-131.3,131.3c3.4,4.4,7.1,8.5,10.9,12.3,26,26,60.4,40.2,97,40.2h44.7V175.7h0ZM704,313.6h-31.6v92h31.6v-92ZM544.9,338.8h-10v41.8h10v-41.8ZM484.8,333.4h-10v52.5h10v-52.5ZM489.2,248.9l-7.9-7.9c-6.2,16.4-6.3,35.3-6.4,55h10c0-16.8,0-33.1,4.3-47.1ZM489.2,470.4c-4.1-14-4.2-30.2-4.3-47.1h-10c.1,19.8.2,38.6,6.4,55.1l7.9-8ZM366.8,441.2c8.7-.7,17.1-2.8,24.9-6.1l-4.8-4.2-20.1,10.3ZM323.6,319.7l3.5-23.4-8.4-7.3c-15.1,8.9-27.1,22.4-34,38.6l11.8,7.7,27.1-15.6ZM396.5,399.6l-3.5,23.4,8.3,7.3c15.1-8.9,27.1-22.4,34-38.6l-11.8-7.7-27,15.6ZM355,344.1l-26.9-15.5-26.9,15.5v31l26.9,15.5,26.9-15.5v-31ZM296.4,383.9l-11.8,7.7c6.9,16.2,18.9,29.8,34,38.6l8.4-7.3-3.5-23.3-27.1-15.7ZM353.3,278.1c-8.8.7-17.2,2.8-24.9,6.1l4.8,4.2,20.1-10.3ZM291.3,343.9l-10-6.6c-2,7.1-3.1,14.5-3.1,22.3s1.1,15.2,3.1,22.3l10-6.6v-31.4ZM386.4,399.1l-26.4-15.3-26.4,15.3,3.4,22.5,23.1,11.8,23.1-11.8,3.2-22.5ZM391.7,284.2c-7.8-3.3-16.2-5.4-24.9-6.1l20.1,10.3,4.8-4.2ZM365,375.2l26.9,15.5,26.9-15.5v-31l-26.9-15.5-26.9,15.4v31.1ZM333.6,320.2l26.4,15.3,26.4-15.3-3.4-22.5-23-11.8-23.1,11.8-3.3,22.5ZM423.6,335.4l11.8-7.7c-6.9-16.2-18.9-29.8-34-38.6l-8.4,7.3,3.5,23.4,27.1,15.6ZM428.7,375.4l10,6.6c2-7.1,3.1-14.5,3.1-22.3s-1.1-15.2-3.1-22.3l-10,6.6v31.4ZM328.3,435.1c7.8,3.3,16.1,5.4,24.9,6.1l-20.1-10.3-4.8,4.2Z"/>
  </g>
</svg>