<?xml version="1.0" encoding="UTF-8"?>
<svg id="Layer_1" data-name="Layer 1" xmlns="http://www.w3.org/2000/svg" xmlns:xlink="http://www.w3.org/1999/xlink" version="1.1" viewBox="0 0 720 720">
  <defs>
    <style>
      .cls-1 {
        clip-path: url(#clippath);
      }

      .cls-2 {
        fill: none;
      }

      .cls-2, .cls-3 {
        stroke-width: 0px;
      }

      .cls-3 {
        fill: #000;
      }
    </style>
    <clipPath id="clippath">
      <rect class="cls-2" width="720" height="720"/>
    </clipPath>
  </defs>
  <g class="cls-1">
    <path class="cls-3" d="M339.6,58.4l-17.1-17.1,7.1-7.1,17.1,17.1-7.1,7.1ZM312.4,17.1L295.3,0l-7.1,7.1,17.1,17.1,7.1-7.1ZM58.4,339.6l-17.1-17.1-7.1,7.1,17.1,17.1,7.1-7.1ZM380.9,85.6l-17.1-17.1-7.1,7.1,17.1,17.1,7.1-7.1ZM399.1,151.7l-87.6,87.6,25.5,25.5,87.6-87.6-7.1-7.1,14.7-14.7,132.4,132.4-14.7,14.7-7.1-7.1-87.6,87.6,25.5,25.5,87.6-87.6-7.1-7.1,158.8-158.7-11.3-11.3-132.7,132.6-132.5-132.4L576.2,11.3l-11.3-11.3-158.7,158.7-7.1-7ZM606.3,32.1c33.3-33.4,78.6-42.1,101.2-19.6s13.8,67.9-19.6,101.2c-33.4,33.4-78.7,42.1-101.2,19.6-22.5-22.5-13.8-67.9,19.6-101.2ZM672.8,98.6c-18.6,18.6-38.9,31.7-55.6,37.1,4.4.2,9.2-.1,14.2-1.1,17.2-3.3,34.8-13.3,49.5-28s24.7-32.3,28-49.5c1-5,1.3-9.7,1.1-14.2-5.5,16.8-18.6,37.1-37.2,55.7ZM675.4,21.3c-15,6.1-31.7,17.8-46.9,33s-26.9,31.9-33,46.9c-4.7,11.6-5.3,21.4-1.7,25.1,3.6,3.6,13.5,3,25.1-1.7,15-6.1,31.7-17.8,46.9-33s26.9-31.9,33-46.9c4.7-11.6,5.3-21.4,1.7-25.1-3.7-3.6-13.6-3-25.1,1.7ZM585.3,88.6c-1,5-1.3,9.7-1.1,14.2,5.4-16.7,18.5-37,37.1-55.6,18.7-18.6,39-31.7,55.7-37.1-4.4-.2-9.2.1-14.2,1.1-17.2,3.3-34.8,13.3-49.5,28s-24.6,32.3-28,49.4ZM24.2,305.3l-17.1-17.1-7.1,7.1,17.1,17.1,7.1-7.1ZM610.3,329.1l7.1-7.1-17.1-17.1-7.1,7.1,17.1,17.1ZM415.1,119.8l-17.1-17.1-7.1,7.1,17.1,17.1,7.1-7.1ZM109.7,390.9l-7.1,7.1,17.1,17.1,7.1-7.1-17.1-17.1ZM373.4,668.6l17.1,17.1,7.1-7.1-17.1-17.1-7.1,7.1ZM407.6,702.9l17.1,17.1,7.1-7.1-17.1-17.1-7.1,7.1ZM627.4,346.2l17.1,17.1,7.1-7.1-17.1-17.1-7.1,7.1ZM113.7,687.9c-33.3,33.4-78.6,42.1-101.2,19.6-22.5-22.6-13.8-67.9,19.6-101.3,33.4-33.4,78.7-42.1,101.2-19.6,22.5,22.6,13.8,67.9-19.6,101.3ZM47.2,621.4c18.6-18.6,38.9-31.7,55.6-37.1-4.4-.2-9.2,0-14.2,1.1-17.2,3.3-34.8,13.3-49.5,28s-24.7,32.3-28,49.5c-1,5-1.3,9.7-1.1,14.2,5.5-16.8,18.6-37.1,37.2-55.7ZM44.6,698.7c15-6.1,31.7-17.8,46.9-33s26.9-31.9,33-46.9c4.7-11.6,5.3-21.4,1.7-25.1-3.6-3.6-13.5-3-25.1,1.7-15,6.1-31.7,17.8-46.9,33-15.2,15.2-26.9,31.9-33,46.9-4.7,11.6-5.3,21.4-1.7,25.1,3.7,3.6,13.6,2.9,25.1-1.7ZM134.7,631.3c1-5,1.3-9.7,1.1-14.2-5.4,16.7-18.5,37-37.1,55.6-18.7,18.7-39,31.8-55.7,37.2,4.4.2,9.2,0,14.2-1.1,17.2-3.3,34.8-13.3,49.5-28,14.7-14.7,24.6-32.3,28-49.5ZM702.9,407.6l-7.1,7.1,17.1,17.1,7.1-7.1-17.1-17.1ZM661.6,380.4l17.1,17.1,7.1-7.1-17.1-17.1-7.1,7.1ZM320.9,568.3l87.6-87.6-25.5-25.5-87.6,87.6,7.1,7.1-14.7,14.7-132.5-132.4,14.7-14.7,7.1,7.1,87.6-87.6-25.5-25.5-87.6,87.6,7.1,7.1L0,564.9l11.3,11.3,132.7-132.7,132.5,132.5-132.7,132.7,11.3,11.3,158.7-158.7,7.1,7ZM75.5,356.7l-7.1,7.1,17.1,17.1,7.1-7.1-17.1-17.1ZM339.1,634.4l17.1,17.1,7.1-7.1-17.1-17.1-7.1,7.1ZM304.9,600.2l17.1,17.1,7.1-7.1-17.1-17.1-7.1,7.1ZM615.5,538l-7.1-7.1-35.2,35.2L153.8,146.8l35.2-35.2-7.1-7.1-35.2,35.2-71.2-71.3-7.1,7.1,71.2,71.2-35.1,35.3,7.1,7.1,35.2-35.2,419.4,419.4-35.2,35.2,7.1,7.1,35.2-35.2,71.2,71.2,3.5-3.6,3.5-3.5-71.2-71.2,35.2-35.3Z"/>
  </g>
</svg>